<svg version="1.1" xmlns="http://www.w3.org/2000/svg" xmlns:xlink="http://www.w3.org/1999/xlink" width="853" height="313.79165124598853"><style xmlns="http://www.w3.org/1999/xhtml"></style><defs/><g transform="translate(0,0)"><path fill="none" stroke="none" stroke-dasharray="undefined" vector-effect="non-scaling-stroke"/><g><rect fill="#FFFFFF" stroke="none" x="0" y="0" width="853" height="313.79165124598853"/></g><g data-width="130" data-height="130" data-layerId="rmTwB7rP2hyU" transform="translate(0,0) matrix(1,0,0,1,380,145)"><g><g transform="translate(0,0) scale(1.3,1.3)"><g><path fill="#d9ead3" stroke="#333333" stroke-dasharray="1.7976931348623157e+308" vector-effect="non-scaling-stroke" d="M 7.692307692307692 0 L 92.3076923076923 0 Q 100 0 100 7.692307692307692 L 100 92.3076923076923 Q 100 100 92.3076923076923 100 L 7.692307692307692 100 Q 0 100 0 92.3076923076923 L 0 7.692307692307692 Q 0 0 7.692307692307692 0 Z" stroke-miterlimit="10" stroke-width="2"/><g transform="scale(0.7692307692307692,0.7692307692307692)"/></g></g></g></g><g data-width="130" data-height="130" data-layerId="rmTwB7rP2hyU" transform="translate(0,0) matrix(0.8660254037844387,0.49999999999999994,-0.49999999999999994,0.8660254037844387,421.20834875401147,116.2083487540115)"><g><g transform="translate(0,0) scale(1.3,1.3)"><g><path fill="#b6d7a8" stroke="#333333" stroke-dasharray="1.7976931348623157e+308" vector-effect="non-scaling-stroke" d="M 7.692307692307692 0 L 92.3076923076923 0 Q 100 0 100 7.692307692307692 L 100 92.3076923076923 Q 100 100 92.3076923076923 100 L 7.692307692307692 100 Q 0 100 0 92.3076923076923 L 0 7.692307692307692 Q 0 0 7.692307692307692 0 Z" stroke-miterlimit="10" stroke-width="2"/><g transform="scale(0.7692307692307692,0.7692307692307692)"/></g></g></g></g><g data-width="130" data-height="130" data-layerId="rmTwB7rP2hyU" transform="translate(0,0) matrix(0.5000000000000001,0.8660254037844386,-0.8660254037844386,0.5000000000000001,468.79165124598853,116.20834875401148)"><g><g transform="translate(0,0) scale(1.3,1.3)"><g><path fill="#93c47d" stroke="#333333" stroke-dasharray="1.7976931348623157e+308" vector-effect="non-scaling-stroke" d="M 7.692307692307692 0 L 92.3076923076923 0 Q 100 0 100 7.692307692307692 L 100 92.3076923076923 Q 100 100 92.3076923076923 100 L 7.692307692307692 100 Q 0 100 0 92.3076923076923 L 0 7.692307692307692 Q 0 0 7.692307692307692 0 Z" stroke-miterlimit="10" stroke-width="2"/><g transform="scale(0.7692307692307692,0.7692307692307692)"/></g></g></g></g><g transform="matrix(1,0,0,1,370,143)"><g><g><rect fill="rgb(0,0,0)" stroke="none" x="0" y="0" width="148" height="96" fill-opacity="0"/></g></g><g><g><rect fill="rgb(0,0,0)" stroke="none" x="0" y="0" width="148" height="96" fill-opacity="0"/></g></g><g><g><rect fill="rgb(0,0,0)" stroke="none" x="22.03125" y="-6" width="104" height="107" fill-opacity="0"/></g></g><g><g><rect fill="rgb(0,0,0)" stroke="none" x="22.03125" y="-6" width="104" height="107" fill-opacity="0"/></g><text fill="rgb(255, 255, 255)" stroke="none" font-family="Times" font-size="96px" font-style="normal" font-weight="normal" text-decoration="" line-height="96px" x="22.03125" y="80" data-layerId="rmTwB7rP2hyU">f</text></g><g><g><rect fill="rgb(0,0,0)" stroke="none" x="54" y="16" width="72" height="80" fill-opacity="0"/></g><text fill="rgb(255, 255, 255)" stroke="none" font-family="Times" font-size="72px" font-style="normal" font-weight="normal" text-decoration="" line-height="72px" x="54" y="80" data-layerId="rmTwB7rP2hyU">ile</text></g></g><g transform="matrix(1,0,0,1,532,155)"><g><g><rect fill="rgb(0,0,0)" stroke="none" x="0" y="0" width="297" height="117" fill-opacity="0"/></g></g><g><g><rect fill="rgb(0,0,0)" stroke="none" x="0" y="0" width="297" height="87" fill-opacity="0"/></g></g><g><g><rect fill="rgb(0,0,0)" stroke="none" x="0" y="0" width="151" height="87" fill-opacity="0"/></g></g><g><g><rect fill="rgb(0,0,0)" stroke="none" x="0" y="0" width="151" height="87" fill-opacity="0"/></g><text fill="rgb(0, 0, 0)" stroke="none" font-family="Verdana" font-size="72px" font-style="normal" font-weight="normal" text-decoration="" line-height="87px" x="0" y="72" data-layerId="rmTwB7rP2hyU">utils</text></g></g></g></svg>